<svg xmlns="http://www.w3.org/2000/svg" viewBox="0 0 400 200" fill="none">
  <defs>
    <linearGradient id="bg-ai" x1="0%" y1="0%" x2="100%" y2="100%">
      <stop offset="0%" stop-color="#581c87"/>
      <stop offset="100%" stop-color="#7e22ce"/>
    </linearGradient>
  </defs>
  <rect width="400" height="200" rx="12" fill="url(#bg-ai)"/>
  <circle cx="100" cy="100" r="35" fill="#3b0764"/>
  <path d="M85 85 L95 95 L115 75" stroke="#c084fc" stroke-width="4" fill="none" stroke-linecap="round"/>
  <circle cx="100" cy="100" r="8" fill="#e879f9"/>
  <rect x="170" y="50" width="80" height="100" rx="8" fill="#3b0764"/>
  <rect x="185" y="70" width="50" height="8" rx="2" fill="#a78bfa"/>
  <rect x="185" y="88" width="40" height="8" rx="2" fill="#c084fc"/>
  <rect x="185" y="106" width="45" height="8" rx="2" fill="#c084fc"/>
  <circle cx="195" cy="140" r="6" fill="#e879f9"/>
  <circle cx="215" cy="140" r="6" fill="#a78bfa"/>
  <circle cx="235" cy="140" r="6" fill="#c084fc"/>
  <rect x="280" y="70" width="90" height="80" rx="8" fill="#3b0764"/>
  <path d="M300 100 Q330 80 360 100 T360 140 Q330 160 300 140" stroke="#c084fc" stroke-width="3" fill="none"/>
  <circle cx="330" cy="120" r="5" fill="#e879f9"/>
</svg>
