<svg xmlns="http://www.w3.org/2000/svg" viewBox="0 0 400 200" fill="none">
  <defs>
    <linearGradient id="bg-clinical" x1="0%" y1="0%" x2="100%" y2="100%">
      <stop offset="0%" stop-color="#0c4a6e"/>
      <stop offset="100%" stop-color="#0369a1"/>
    </linearGradient>
  </defs>
  <rect width="400" height="200" rx="12" fill="url(#bg-clinical)"/>
  <circle cx="100" cy="90" r="25" fill="#0e7490" stroke="#22d3ee" stroke-width="2"/>
  <circle cx="100" cy="90" r="15" fill="#67e8f9" opacity="0.8"/>
  <path d="M130 70 L180 70 L180 110 L130 110 Z" fill="#0e7490" rx="4"/>
  <rect x="140" y="80" width="30" height="20" rx="2" fill="#22d3ee"/>
  <rect x="180" y="80" width="25" height="20" rx="2" fill="#22d3ee"/>
  <path d="M200 90 L230 90 L230 110 L200 110 Z" fill="#0e7490" rx="4"/>
  <path d="M210 98 L220 98 L220 102 L210 102 Z" fill="#67e8f9"/>
  <rect x="250" y="60" width="100" height="100" rx="8" fill="#0e7490"/>
  <line x1="270" y1="80" x2="330" y2="80" stroke="#22d3ee" stroke-width="3"/>
  <line x1="270" y1="95" x2="320" y2="95" stroke="#67e8f9" stroke-width="2"/>
  <line x1="270" y1="110" x2="310" y2="110" stroke="#67e8f9" stroke-width="2"/>
  <path d="M280 140 L290 155 L310 125" stroke="#4ade80" stroke-width="4" fill="none" stroke-linecap="round"/>
</svg>
