<svg xmlns="http://www.w3.org/2000/svg" viewBox="0 0 400 200" fill="none">
  <defs>
    <linearGradient id="bg-hospital" x1="0%" y1="0%" x2="100%" y2="100%">
      <stop offset="0%" stop-color="#7f1d1d"/>
      <stop offset="100%" stop-color="#b91c1c"/>
    </linearGradient>
  </defs>
  <rect width="400" height="200" rx="12" fill="url(#bg-hospital)"/>
  <path d="M120 160 L120 80 L180 80 L180 160 Z" fill="#1c1917"/>
  <path d="M140 80 L140 50 L160 50 L160 80 Z" fill="#1c1917"/>
  <path d="M145 120 L155 120 L155 140 L145 140 Z" fill="#ef4444"/>
  <path d="M200 100 L220 80 L240 100 L220 120 Z" fill="#fecaca"/>
  <rect x="260" y="70" width="100" height="90" rx="4" fill="#1c1917"/>
  <rect x="275" y="90" width="70" height="8" rx="2" fill="#78716c"/>
  <rect x="275" y="105" width="50" height="8" rx="2" fill="#78716c"/>
  <path d="M290 140 L300 150 L320 125" stroke="#22c55e" stroke-width="4" fill="none" stroke-linecap="round"/>
</svg>
