<svg xmlns="http://www.w3.org/2000/svg" viewBox="0 0 400 200" fill="none">
  <defs>
    <linearGradient id="bg-vacc" x1="0%" y1="0%" x2="100%" y2="100%">
      <stop offset="0%" stop-color="#064e3b"/>
      <stop offset="100%" stop-color="#047857"/>
    </linearGradient>
  </defs>
  <rect width="400" height="200" rx="12" fill="url(#bg-vacc)"/>
  <rect x="80" y="70" width="40" height="80" rx="4" fill="#0d9488"/>
  <rect x="75" y="65" width="50" height="15" rx="2" fill="#14b8a6"/>
  <rect x="150" y="80" width="40" height="60" rx="4" fill="#0d9488"/>
  <rect x="145" y="75" width="50" height="12" rx="2" fill="#14b8a6"/>
  <rect x="220" y="85" width="40" height="50" rx="4" fill="#0d9488"/>
  <rect x="215" y="80" width="50" height="12" rx="2" fill="#14b8a6"/>
  <path d="M280 100 L320 100 L320 140 L280 140 Z" fill="#0d9488"/>
  <path d="M285 95 L315 95 L315 105 L285 105 Z" fill="#14b8a6"/>
  <path d="M300 110 L310 120 L300 130 L290 120 Z" fill="#5eead4"/>
</svg>
